<?xml version="1.0" encoding="UTF-8"?>
<svg version="1.1" xmlns="http://www.w3.org/2000/svg" width="512" height="512">
<path d="M0 0 C1.54586876 3.09173752 1.29359521 5.59429552 1 9 C-1.93250577 12.79762582 -4.74390308 13.81235668 -9.3203125 14.96484375 C-10.56981689 15.28727051 -11.81932129 15.60969727 -13.10668945 15.94189453 C-13.76335602 16.10449768 -14.42002258 16.26710083 -15.09658813 16.43463135 C-17.1412302 16.94152367 -19.1806078 17.46602528 -21.21948242 17.99560547 C-26.14869084 19.27259675 -31.08465728 20.52170538 -36.02490234 21.75537109 C-51.80119541 25.58675195 -51.80119541 25.58675195 -63.375 36.4375 C-69.96782035 49.02526518 -70.46218175 65.84671493 -72.57421875 79.734375 C-72.90616586 81.90619949 -73.23818316 84.07801326 -73.57026672 86.24981689 C-74.26108586 90.77439292 -74.94892166 95.29941135 -75.63500977 99.82470703 C-76.51131786 105.60097667 -77.39842708 111.37553189 -78.28816509 117.14974594 C-78.97575522 121.62378592 -79.65593019 126.09893064 -80.33408546 130.57440948 C-80.65794837 132.70370184 -80.98445751 134.83259358 -81.31375694 136.96105194 C-81.77384801 139.94003331 -82.22345828 142.92042648 -82.6706543 145.90136719 C-82.80620224 146.76397659 -82.94175018 147.626586 -83.08140564 148.51533508 C-84.63861207 159.07473102 -85.16621458 167.89506608 -79 177 C-73.49076703 182.65421279 -67.22853187 184.32746326 -59.59254456 184.4367218 C-58.65458542 184.43528671 -57.71662628 184.43385162 -56.75024414 184.43237305 C-55.24178421 184.44766052 -55.24178421 184.44766052 -53.70285034 184.46325684 C-50.39689514 184.49331972 -47.09123003 184.50264272 -43.78515625 184.51171875 C-41.4858657 184.52857036 -39.18658434 184.54672126 -36.88731384 184.56611633 C-30.84905874 184.61356977 -24.81084089 184.64340944 -18.77246094 184.66955566 C-12.60539393 184.69938453 -6.4384552 184.74590693 -0.27148438 184.79101562 C11.81894325 184.87699589 23.90939732 184.9443648 36 185 C35.71681868 182.4363053 35.42377507 179.87438474 35.125 177.3125 C35.04636719 176.59126953 34.96773437 175.87003906 34.88671875 175.12695312 C34.41371703 171.14282327 33.84598982 167.62465451 32 164 C28.56410733 162.3884617 24.31613762 162.65516994 20.55078125 162.453125 C19.77793289 162.41076721 19.00508453 162.36840942 18.20881653 162.32476807 C10.86327578 161.96655902 3.52110177 161.90444281 -3.83203125 161.859375 C-5.65491165 161.84493347 -5.65491165 161.84493347 -7.51461792 161.8302002 C-15.10011366 161.77022903 -15.10011366 161.77022903 -22.68579102 161.74951172 C-26.42256915 161.74619204 -30.15798869 161.71180041 -33.89453125 161.671875 C-35.03718948 161.6789447 -36.17984772 161.6860144 -37.35713196 161.69329834 C-42.12560896 161.61963925 -45.12938688 161.52919493 -49.2565918 159.02050781 C-51.68955927 154.80531756 -51.49083274 151.7535793 -51 147 C-50.91068207 146.11179565 -50.82136414 145.22359131 -50.7293396 144.30847168 C-50.38795023 141.31817454 -49.9894893 138.34028974 -49.57421875 135.359375 C-49.42596146 134.27416565 -49.27770416 133.1889563 -49.12495422 132.07086182 C-48.81119721 129.79126412 -48.49418349 127.51211253 -48.17407227 125.23339844 C-47.68727183 121.74836653 -47.2191875 118.26113974 -46.75195312 114.7734375 C-46.44384566 112.5519253 -46.13463887 110.33056523 -45.82421875 108.109375 C-45.68658615 107.06972595 -45.54895355 106.0300769 -45.40715027 104.95892334 C-44.5580283 99.06252653 -43.77860035 94.60415202 -39.2734375 90.38183594 C-38.64695313 89.92067383 -38.02046875 89.45951172 -37.375 88.984375 C-36.6739917 88.46020996 -35.9729834 87.93604492 -35.25073242 87.39599609 C-34.50799072 86.85281738 -33.76524902 86.30963867 -33 85.75 C-31.45347041 84.59242285 -29.90789702 83.43356712 -28.36328125 82.2734375 C-27.23720459 81.43184082 -27.23720459 81.43184082 -26.08837891 80.57324219 C-18.25047769 74.66870216 -10.95601549 68.2242242 -3.7734375 61.5546875 C-1.52922965 59.48748759 0.74185859 57.4796492 3.0625 55.5 C11.94572057 47.75943436 19.73655828 39.26278631 27 30 C27.80179688 29.01515625 28.60359375 28.0303125 29.4296875 27.015625 C35.85343933 19.02828755 41.02947449 10.52839895 46.01367188 1.58129883 C47.51231159 -0.82134708 48.59394636 -1.88144557 51.33177185 -2.68080139 C54.12480533 -3.01493039 55.97654948 -2.78729382 58.69165039 -2.10717773 C59.59351578 -1.88621933 60.49538116 -1.66526093 61.42457581 -1.43760681 C62.38919235 -1.1887825 63.3538089 -0.93995819 64.34765625 -0.68359375 C65.85917519 -0.30328758 65.85917519 -0.30328758 67.40122986 0.08470154 C69.53504916 0.62506902 71.6674786 1.17095042 73.79858398 1.72192383 C77.02224636 2.55213323 80.25163125 3.35624783 83.48242188 4.15820312 C100.09383688 8.35840946 115.4803115 12.56418113 124.91796875 28.171875 C131.37535314 40.74920327 131.0472693 51.19540905 126.81347656 64.67089844 C119.92089644 84.40535652 108.27981184 100.96729825 94 116 C92.86861934 117.32792341 91.7431487 118.66091589 90.625 120 C75.93896517 136.92924778 75.93896517 136.92924778 69 138.43359375 C65.50442286 138.44042105 63.52304422 138.32690263 60.5 136.4375 C58.38993161 133.00863886 58.37508477 130.95779649 59 127 C61.0625 124.5 61.0625 124.5 64 122 C65.11192988 120.8826724 66.21561761 119.75710338 67.3125 118.625 C69.78284821 116.14393445 72.33155171 113.82835841 75 111.5625 C79.08905051 108.01395616 82.58308176 104.1941271 86 100 C87.16015625 98.57880859 87.16015625 98.57880859 88.34375 97.12890625 C99.37935951 83.3360087 114.40602981 63.24112047 112.9375 44.6875 C110.98175081 36.9948865 107.27390597 32.60498517 101 28 C100.34 27.67 99.68 27.34 99 27 C98.71125 28.27875 98.4225 29.5575 98.125 30.875 C91.24642112 53.56788172 72.33298314 75.4657431 54 90 C53.24904053 90.59554687 53.24904053 90.59554687 52.48291016 91.203125 C36.50473054 103.81869788 36.50473054 103.81869788 29 103 C26.625 101.875 26.625 101.875 25 100 C23.8980172 96.62058607 23.6020531 94.85433356 25.1171875 91.6015625 C27.35875185 88.50429724 29.99580869 86.45675496 33.0625 84.25 C38.25343179 80.39439818 43.11418337 76.33526055 47.8671875 71.94140625 C50 70 50 70 53.0625 67.625 C57.61881056 63.55340333 61.25165963 58.81015693 65 54 C65.67289063 53.154375 66.34578125 52.30875 67.0390625 51.4375 C73.57277874 42.89941663 80.36664865 32.53340539 83 22 C74.42 19.69 65.84 17.38 57 15 C56.34 16.65 55.68 18.3 55 20 C50.70574476 27.55556801 45.57074037 34.35353045 40 41 C39.58685547 41.50337891 39.17371094 42.00675781 38.74804688 42.52539062 C32.59645548 50.01782963 26.10176549 57.07824706 19.25 63.9375 C18.20501343 64.98369507 18.20501343 64.98369507 17.13891602 66.05102539 C12.58207993 70.55927538 7.86598564 74.82906382 3 79 C2.48099121 79.45141357 1.96198242 79.90282715 1.42724609 80.36791992 C-0.0213419 81.62759337 -1.47941524 82.87633144 -2.9375 84.125 C-3.46964111 84.58382568 -4.00178223 85.04265137 -4.55004883 85.51538086 C-7.77950451 88.25860285 -11.08191131 90.80566145 -14.546875 93.24609375 C-15.31652588 93.7982959 -16.08617676 94.35049805 -16.87915039 94.91943359 C-18.38233356 95.9893884 -19.90195168 97.03673541 -21.43920898 98.05712891 C-25.25839552 100.7970861 -27.36960371 102.82516191 -28.359375 107.50390625 C-28.59943335 109.33265187 -28.81028299 111.16534853 -29 113 C-29.34076511 115.32094597 -29.68610585 117.64122311 -30.03515625 119.9609375 C-30.38045998 122.43189426 -30.72286149 124.90325817 -31.0625 127.375 C-31.4056126 129.86224749 -31.75058238 132.34923968 -32.09765625 134.8359375 C-32.24726807 135.92438965 -32.39687988 137.0128418 -32.55102539 138.13427734 C-32.91826121 140.47827626 -33.37225143 142.71495376 -34 145 C-32.91920166 144.99476318 -31.83840332 144.98952637 -30.72485352 144.98413086 C5.3226071 144.82577621 5.3226071 144.82577621 20.4375 145.25 C21.397771 145.26409912 22.35804199 145.27819824 23.34741211 145.29272461 C31.46669149 145.58591065 39.21382798 148.05310098 45 154 C51.4308756 163.46819877 52.36191362 172.4920983 52.375 183.6875 C52.39949219 184.80189453 52.42398438 185.91628906 52.44921875 187.06445312 C52.45308594 188.14017578 52.45695313 189.21589844 52.4609375 190.32421875 C52.46915527 191.29447998 52.47737305 192.26474121 52.48583984 193.2644043 C51.80979035 197.0710046 50.91478682 198.40565344 48 201 C44.31860309 201.77246805 40.66995866 201.68248908 36.92016602 201.64697266 C35.78954239 201.65573425 34.65891876 201.66449585 33.49403381 201.67352295 C29.7469367 201.6955703 26.00101595 201.68093494 22.25390625 201.6640625 C19.64517491 201.66743117 17.03644509 201.67228421 14.42771912 201.67855835 C8.95078821 201.68765788 3.47419417 201.67567171 -2.00268555 201.65185547 C-8.30459284 201.62476521 -14.60568819 201.63336752 -20.90757507 201.6609875 C-26.99344883 201.68657949 -33.07896767 201.68365269 -39.16487312 201.66907883 C-41.74146706 201.66575937 -44.31808188 201.66978005 -46.89465141 201.68147659 C-78.21172394 201.79235461 -78.21172394 201.79235461 -90.91015625 189.3203125 C-99.61529212 179.65517099 -101.69303388 169.2098991 -101.16807556 156.45055771 C-100.52933571 147.13766976 -98.85561085 137.89103476 -97.421875 128.67578125 C-97.04963959 126.2374227 -96.67809017 123.79895934 -96.30718994 121.36039734 C-95.53088546 116.27354473 -94.74662618 111.18800167 -93.95654297 106.10327148 C-92.94870004 99.61315006 -91.96045528 93.12022467 -90.97809982 86.62620258 C-90.21540279 81.5984754 -89.44252198 76.57235392 -88.66660309 71.54665184 C-88.29837753 69.15392055 -87.93320399 66.76071736 -87.57125092 64.36702919 C-82.07988568 28.1662651 -82.07988568 28.1662651 -67.75 16.125 C-57.01708883 8.66881426 -44.17131905 5.89824694 -31.68041992 2.75830078 C-28.67055052 1.9957056 -25.67078551 1.19954362 -22.66992188 0.40234375 C-20.74271431 -0.08801267 -18.81499582 -0.57636634 -16.88671875 -1.0625 C-15.99804611 -1.30291016 -15.10937347 -1.54332031 -14.19377136 -1.79101562 C-8.36750083 -3.20537994 -5.21227667 -3.0908053 0 0 Z " fill="#464646" transform="translate(231,181)"/>
<path d="M0 0 C2.58262227 3.03837914 2.68386922 4.64104274 2.69140625 8.5 C1.86403207 11.42148676 0.44515078 12.5480486 -1.875 14.5 C-5.10791016 15.77685547 -5.10791016 15.77685547 -8.9140625 16.8671875 C-9.59495941 17.06925812 -10.27585632 17.27132874 -10.97738647 17.47952271 C-13.86885208 18.33747276 -16.76848302 19.16597162 -19.66845703 19.99462891 C-33.03780513 23.84526861 -44.47479202 28.18743918 -52.12109375 40.5078125 C-57.3069238 50.19562688 -58.17494068 59.50833903 -55.25 70.0625 C-53.59384615 75.1501093 -51.54010038 78.97375773 -48.046875 83.01171875 C-46.875 84.5 -46.875 84.5 -46.875 86.5 C-46.28847656 86.77972656 -45.70195313 87.05945313 -45.09765625 87.34765625 C-43.03228354 88.41845581 -41.22118986 89.61419666 -39.3125 90.9375 C-30.78957238 96.247798 -21.54539409 96.94531158 -11.72509766 96.90405273 C-9.98373787 96.91434761 -9.98373787 96.91434761 -8.2071991 96.92485046 C-4.40102622 96.94302834 -0.59526912 96.93929347 3.2109375 96.93359375 C5.20204123 96.93700406 7.19314515 96.9404237 9.18424666 96.94494683 C15.43537623 96.95893737 21.68636898 96.95747711 27.9375 96.94604492 C34.35133717 96.93457318 40.7647557 96.94863564 47.17853773 96.9754414 C52.71779998 96.99771136 58.25693191 97.00421043 63.79623568 96.99836498 C67.090281 96.99502048 70.38400206 96.9989901 73.67802048 97.01461601 C77.35775996 97.02961371 81.03659597 97.01878322 84.71630859 97.00170898 C85.78372787 97.01137695 86.85114716 97.02104492 87.95091248 97.03100586 C100.03067156 96.91455103 110.99876142 93.5993297 120.125 85.5 C127.77051826 77.55724777 130.38484286 67.44012204 132.64306641 56.9453125 C134.05405672 50.72543682 134.05405672 50.72543682 137.125 48.5 C140.20858537 46.95820732 143.45989771 47.36403595 146.84375 47.359375 C148.43230577 47.34102671 150.02084779 47.32145458 151.609375 47.30078125 C154.1063525 47.27198499 156.60245586 47.25000445 159.09960938 47.24951172 C174.23855463 47.28247748 174.23855463 47.28247748 187.01049805 39.7265625 C190.17235177 36.3364107 192.13052995 32.67888962 194.125 28.5 C195.375 26.625 195.375 26.625 197.125 25.5 C200.70493132 25.10946204 203.19262954 25.0828869 206.5 26.5625 C208.30451442 28.71403643 209.16770757 30.46439202 209.40625 33.28515625 C208.21143947 42.69428915 201.33565338 50.84276712 194.125 56.5 C186.62005108 61.18198649 178.99794747 63.7744262 170.09765625 63.6953125 C168.81181641 63.68886719 167.52597656 63.68242187 166.20117188 63.67578125 C164.86327846 63.65907601 163.52538783 63.64214619 162.1875 63.625 C160.82227217 63.61495322 159.4570372 63.60583036 158.09179688 63.59765625 C154.76934801 63.57417605 151.44726679 63.54133359 148.125 63.5 C147.94469238 64.43231445 147.76438477 65.36462891 147.57861328 66.32519531 C144.36295692 82.23989899 137.55907961 95.14032359 123.6875 104.375 C111.50289503 111.58733581 99.83877351 113.80614807 85.79736328 113.7746582 C84.60573578 113.77976913 83.41410828 113.78488007 82.18637085 113.79014587 C78.9465427 113.80159136 75.70687481 113.80412722 72.46703196 113.80158257 C69.74870285 113.80050514 67.03039676 113.80541582 64.31207263 113.810188 C57.89178705 113.82124439 51.47156 113.82174252 45.05126953 113.81567383 C38.45857619 113.80963738 31.86609645 113.82194549 25.27343953 113.8432439 C19.58476101 113.86093668 13.89615 113.86684922 8.20744503 113.86360615 C4.82237163 113.86180529 1.43745062 113.8643083 -1.9475975 113.87832069 C-5.72808777 113.89073607 -9.50809102 113.88386236 -13.28857422 113.87231445 C-14.93953094 113.88378006 -14.93953094 113.88378006 -16.62384033 113.89547729 C-30.92137799 113.79954516 -46.66932151 109.39498937 -57.296875 99.27734375 C-68.22774906 86.96658212 -74.54609266 73.42559343 -74.18359375 56.8359375 C-72.7398139 41.22849455 -66.90703481 28.98475776 -55.79296875 17.8515625 C-47.28958987 10.99877256 -38.21237576 7.5743987 -27.92382812 4.34765625 C-25.61034891 3.6203943 -23.3051845 2.87027956 -21 2.1171875 C-19.51605929 1.64187118 -18.03169804 1.16786533 -16.546875 0.6953125 C-15.86550476 0.47352325 -15.18413452 0.25173401 -14.4821167 0.02322388 C-9.23991293 -1.60177619 -4.98787206 -2.60236803 0 0 Z " fill="#464646" transform="translate(122.875,372.5)"/>
<path d="M0 0 C11.40974732 9.8198645 18.060554 21.81353783 20.046875 36.7734375 C20.22482119 40.57225053 20.25856357 44.36932184 20.28515625 48.171875 C20.293228 49.27963287 20.30129974 50.38739075 20.30961609 51.52871704 C20.32342392 53.8737839 20.33416078 56.21887058 20.34204102 58.56396484 C20.35351072 60.93577056 20.37388196 63.30755151 20.40356445 65.67919922 C20.66593347 86.67165182 19.94321312 105.49912352 4.734375 121.6484375 C-7.57013046 133.18130448 -21.7258363 137.32656854 -38.234375 137.046875 C-53.18574344 136.43698477 -65.39226657 129.41795729 -75.58984375 118.78125 C-85.19034186 106.56243422 -88.26635497 93.56881124 -88.25390625 78.28515625 C-88.25819138 77.10556839 -88.2624765 75.92598053 -88.26689148 74.71064758 C-88.27261079 72.22548054 -88.27315283 69.74029676 -88.26879883 67.25512695 C-88.26564341 63.48294049 -88.28911397 59.71154263 -88.31445312 55.93945312 C-88.31672702 53.51302181 -88.31742919 51.08658841 -88.31640625 48.66015625 C-88.325616 47.5472673 -88.33482574 46.43437836 -88.34431458 45.2877655 C-88.25252089 29.5017 -83.39633929 15.50188036 -72.359375 4.0234375 C-52.23329187 -14.79575712 -22.12644507 -16.68263715 0 0 Z M-64.765625 19.9609375 C-71.07864837 28.76705381 -72.5633659 38.35946074 -72.44921875 48.96875 C-72.45067398 50.08224823 -72.45212921 51.19574646 -72.45362854 52.34298706 C-72.45198116 54.67741536 -72.4405518 57.01185585 -72.41967773 59.34619141 C-72.39063976 62.89663254 -72.39911193 66.44558383 -72.41210938 69.99609375 C-72.40587276 72.278653 -72.39748244 74.5612076 -72.38671875 76.84375 C-72.38965439 77.89192902 -72.39259003 78.94010803 -72.39561462 80.02005005 C-72.24485229 91.92482791 -69.01819694 101.10667191 -60.984375 109.9375 C-53.32179477 117.35021348 -45.06996517 120.99983644 -34.390625 121.3359375 C-23.01959307 120.90574509 -14.3311423 117.0626657 -6.26953125 109.11328125 C2.35061023 99.6762685 4.35904012 89.1008424 4.34765625 76.66015625 C4.35408394 75.08485893 4.35408394 75.08485893 4.36064148 73.47773743 C4.36636102 71.26486936 4.36690265 69.0519825 4.36254883 66.83911133 C4.35939441 63.48160162 4.38285961 60.12497882 4.40820312 56.76757812 C4.41047714 54.60677193 4.41117914 52.4459634 4.41015625 50.28515625 C4.419366 49.29521164 4.42857574 48.30526703 4.43806458 47.2853241 C4.36100834 35.47890064 1.31121511 24.54359389 -6.83984375 15.734375 C-15.37730442 7.85106161 -25.13521432 4.21769752 -36.765625 4.46484375 C-48.5182591 5.60266004 -57.2150657 11.13062238 -64.765625 19.9609375 Z " fill="#474747" transform="translate(290.953125,33.2265625)"/>
<path d="M0 0 C3.08247746 0.87343228 6.14457965 1.79111383 9.19750977 2.76269531 C11.10076959 3.36578488 13.01207194 3.94329902 14.92333984 4.52050781 C32.57918478 10.04083452 44.40105858 18.32175471 53.80810547 34.24707031 C59.60060538 46.9141855 61.23253734 62.2477064 56.83544922 75.64160156 C51.18587922 89.96959848 42.84791475 101.23671656 28.80810547 108.24707031 C21.05631931 111.38812865 13.54131862 113.36133818 5.1469574 113.38751221 C4.04368103 113.39322235 2.94040466 113.3989325 1.80369568 113.40481567 C0.60817581 113.40593353 -0.58734406 113.40705139 -1.8190918 113.40820312 C-3.08965424 113.41316803 -4.36021667 113.41813293 -5.66928101 113.42324829 C-9.14229067 113.43631307 -12.61528106 113.44280473 -16.08831143 113.44725895 C-18.25964632 113.45019713 -20.43097602 113.45430316 -22.60230827 113.45876312 C-29.40090457 113.47241772 -36.19948891 113.48209632 -42.99809796 113.48596501 C-50.83810374 113.49045155 -58.67793568 113.50803546 -66.51788861 113.53696561 C-72.58598168 113.5585789 -78.65402579 113.56866898 -84.72215694 113.57000613 C-88.3434961 113.57105371 -91.96467138 113.57695234 -95.58596992 113.59482574 C-99.62211825 113.61436231 -103.65790145 113.61001894 -107.6940918 113.60351562 C-108.89163589 113.61273041 -110.08917999 113.62194519 -111.32301331 113.63143921 C-112.42346985 113.62587006 -113.52392639 113.6203009 -114.6577301 113.61456299 C-116.08818586 113.61676283 -116.08818586 113.61676283 -117.54753971 113.61900711 C-120.72002989 113.17278642 -122.60945558 112.1134971 -125.19189453 110.24707031 C-126.61851672 107.39382594 -126.50223321 105.41252482 -126.19189453 102.24707031 C-124.94142151 99.58609009 -124.94142151 99.58609009 -122.19189453 97.24707031 C-118.10157984 96.47896948 -114.03757421 96.58885752 -109.88696289 96.63525391 C-108.62633026 96.62958908 -107.36569763 96.62392426 -106.06686401 96.61808777 C-103.3258712 96.60591038 -100.58550082 96.60937381 -97.84452629 96.62491989 C-93.50176903 96.64926718 -89.15955476 96.63772692 -84.81678772 96.62124634 C-77.15504407 96.59674361 -69.4935473 96.60254788 -61.83178711 96.61505127 C-50.32366452 96.6336083 -38.81559189 96.62863211 -27.30750376 96.59501708 C-23.00018681 96.58356892 -18.69326806 96.58785338 -14.38597381 96.60503745 C-12.34389202 96.6110712 -10.30194296 96.61029613 -8.25985718 96.60664368 C-5.78306906 96.60244042 -3.30622836 96.60873594 -0.82951355 96.62825012 C11.29210714 96.57032051 22.47514803 93.96500551 31.62451172 85.58300781 C39.37569448 77.07419064 42.32963692 66.97387631 42.12060547 55.59472656 C41.35952097 47.44160891 38.20034237 41.02099594 32.97998047 34.80566406 C31.80810547 33.24707031 31.80810547 33.24707031 31.80810547 31.24707031 C30.94064697 30.82530518 30.94064697 30.82530518 30.05566406 30.39501953 C27.92322334 29.30586721 25.90145817 28.10833756 23.84716797 26.87988281 C18.23164621 23.7468676 12.31902394 21.96576078 6.18310547 20.12207031 C-11.81349895 14.6254659 -11.81349895 14.6254659 -15.19189453 11.24707031 C-15.8585612 4.35818142 -15.8585612 4.35818142 -13.69189453 0.74707031 C-9.2252792 -1.93289888 -4.87936021 -1.15098263 0 0 Z " fill="#474747" transform="translate(400.19189453125,372.7529296875)"/>
<path d="M0 0 C3.86416669 3.64472759 4.06258149 8.56341945 4.82421875 13.56640625 C4.97534622 14.51450668 5.12647369 15.46260712 5.28218079 16.43943787 C5.59961799 18.45342726 5.91108661 20.46836511 6.21704102 22.48413086 C6.678339 25.50255656 7.16679071 28.51564766 7.65820312 31.52929688 C9.13427845 40.87270499 10.29483648 50.0836652 10.328125 59.5546875 C10.33184616 60.31548111 10.33556732 61.07627472 10.33940125 61.86012268 C10.17293416 72.5512848 5.7606232 80.25398064 -1.53515625 87.8046875 C-10.94204817 96.18293355 -20.01230668 98.30929117 -32.26171875 98.3359375 C-33.86404106 98.3459227 -33.86404106 98.3459227 -35.49873352 98.35610962 C-37.74694097 98.36619822 -39.99517814 98.37092782 -42.2434082 98.37060547 C-45.68685608 98.37499918 -49.12904243 98.4114162 -52.57226562 98.44921875 C-54.76041229 98.45508351 -56.94856503 98.45905518 -59.13671875 98.4609375 C-60.16592941 98.47530853 -61.19514008 98.48967957 -62.25553894 98.50448608 C-69.32749631 98.45906845 -69.32749631 98.45906845 -72.65161133 96.18994141 C-74.62905663 92.97833823 -74.46169657 90.69357257 -74 87 C-72.23984869 83.8149643 -71.50109084 83.16703028 -68 82 C-66.55413301 81.90579833 -65.1044352 81.86471332 -63.65551758 81.8581543 C-62.78063187 81.85111984 -61.90574615 81.84408539 -61.00434875 81.83683777 C-60.06060898 81.83267349 -59.1168692 81.82850922 -58.14453125 81.82421875 C-56.13996355 81.8010122 -54.13540624 81.77689453 -52.13085938 81.75195312 C-48.97543473 81.71691191 -45.82039002 81.68753366 -42.66479492 81.67407227 C-39.61590608 81.65852525 -36.5681247 81.61826465 -33.51953125 81.57421875 C-32.58591263 81.57612717 -31.65229401 81.57803558 -30.69038391 81.58000183 C-23.69237627 81.45042888 -18.33390845 79.87694416 -12.9765625 75.25390625 C-12.30753906 74.41666016 -12.30753906 74.41666016 -11.625 73.5625 C-11.16351563 73.00691406 -10.70203125 72.45132813 -10.2265625 71.87890625 C-2.76843474 60.45419461 -7.94541343 43.18463716 -10 30.625 C-10.43255269 27.94888264 -10.86181578 25.27235758 -11.28393555 22.59457397 C-11.54459467 20.94398911 -11.81126167 19.2943367 -12.08520508 17.64590454 C-12.87217944 12.69940647 -13.27283539 8.01130404 -13 3 C-9.13460497 -2.19828987 -5.76560229 -2.522451 0 0 Z " fill="#474747" transform="translate(368,284)"/>
<path d="M0 0 C1.92005859 -0.04640625 1.92005859 -0.04640625 3.87890625 -0.09375 C8.28554099 0.64149531 9.72558744 2.02056502 12.4375 5.5 C13.13473722 9.2185985 12.68976896 10.97252854 11.0625 14.375 C7.1158278 17.56992512 3.32922798 16.92009114 -1.5625 16.5 C-1.53929687 17.66917969 -1.51609375 18.83835937 -1.4921875 20.04296875 C-1.47342179 21.59113942 -1.45522245 23.13931703 -1.4375 24.6875 C-1.41236328 25.84088867 -1.41236328 25.84088867 -1.38671875 27.01757812 C-1.35031887 31.25816472 -1.40854136 34.71274161 -3.5625 38.5 C-7.07503146 40.84168764 -8.42719356 40.99623677 -12.5625 40.5 C-15.21850586 38.85693359 -15.21850586 38.85693359 -17.5625 36.5 C-18.19360352 33.66259766 -18.19360352 33.66259766 -18.19140625 30.4140625 C-18.19333984 29.23585938 -18.19527344 28.05765625 -18.19726562 26.84375 C-18.17341797 25.6165625 -18.14957031 24.389375 -18.125 23.125 C-18.13595703 21.90554687 -18.14691406 20.68609375 -18.15820312 19.4296875 C-18.06457489 7.9945589 -18.06457489 7.9945589 -13.5625 3.5 C-9.07728197 0.5224713 -5.33041525 0.0430306 0 0 Z " fill="#464646" transform="translate(272.5625,87.5)"/>
<path d="M0 0 C3 1.5 3 1.5 5 4 C5.9158296 7.9550871 5.57765934 10.94971029 3.625 14.5 C-0.47710185 16.8440582 -4.3953253 16.73430028 -9 16 C-11.625 14.5 -11.625 14.5 -13 12 C-13.59392053 9.18608526 -13.65009889 6.8075067 -13 4 C-9.45573824 -0.4303272 -5.34393629 -1.03431025 0 0 Z " fill="#464646" transform="translate(241,88)"/>
</svg>
